<svg xmlns="http://www.w3.org/2000/svg" viewBox="0 0 198.77 221.51"><defs><style>.cls-1,.cls-2,.cls-3{fill:none;stroke:#000;stroke-miterlimit:10;}.cls-1{stroke-width:18px;}.cls-2{stroke-width:8px;}.cls-3{stroke-width:2px;}</style></defs><g id="Calque_2" data-name="Calque 2"><g id="Calque_1-2" data-name="Calque 1"><polygon class="cls-1" points="189.77 160.99 99.39 211.22 9 160.99 9 60.53 99.39 10.3 189.77 60.53 189.77 160.99"/><polygon class="cls-2" points="172.75 151.13 99.78 191.42 26.82 151.13 26.82 70.54 99.78 30.25 172.75 70.54 172.75 151.13"/><path d="M55.48,96.12l7.38,4.26,7.38,4.26q-.19,8.31,0,16.8a.51.51,0,0,1-.3-.08.82.82,0,0,0-.3-.16c-.61-.38-1.24-.74-1.88-1.08l-2-1.08V108.6c0-.19,0-.43,0-.72a1.79,1.79,0,0,0,0-.72c0-.06,0-.12-.16-.2a1.57,1.57,0,0,0-.36-.22,2.87,2.87,0,0,0-.4-.18l-.28-.12q-2.28-1.36-4.56-2.64t-4.56-2.64c-1.68,1-3.38,1.94-5.1,3l-5.22,3V119q2.37,1.44,4.78,2.82l4.94,2.82.3.22a.86.86,0,0,0,.3.14.73.73,0,0,0,.3-.14,2.14,2.14,0,0,1,.42-.22l2.62-1.54c.84-.5,1.69-1,2.54-1.46.72.37,1.46.78,2.2,1.22s1.46.87,2.12,1.3l-5.1,2.94-5.1,2.94-7.36-4.26q-3.63-2.1-7.28-4.26V104.64q3.64-2.08,7.28-4.22T55.48,96.12Zm14.76,25.44a32.61,32.61,0,0,0,0,5q-2.28-1.17-4.44-2.46t-4.32-2.58q1.08-.65,2.16-1.2t2.16-1.2c.72.37,1.45.77,2.18,1.2S69.47,121.18,70.24,121.56Z"/><path d="M77.12,90.24v11.88q2.73-1.44,5.26-2.94c1.7-1,3.38-2,5.06-2.94Q90.25,97.76,93,99.3t5.58,3.18l3.6,2.16v16.92l-1.82,1.08-1.9,1.08q-2.72,1.52-5.46,3.12t-5.46,3.24l-7.38-4.26-7.38-4.26v-17.4c0-2.78,0-5.56,0-8.34s0-5.45,0-8v-.12Q75.13,89,77.12,90.24Zm10.44,10.92c-1.76,1-3.5,1.94-5.22,3l-5.22,3V119l5.22,3q2.58,1.47,5.1,3,2.64-1.44,5.22-3t5.22-3V107.16l-5.16-3Q90.2,102.68,87.56,101.16Z"/><path d="M120.8,96.12c2.48,1.38,4.94,2.78,7.36,4.2l7.28,4.2c-.72.48-1.42.91-2.12,1.3l-2.2,1.22L126,104.1l-5.1-2.94c-1.76,1-3.5,1.94-5.22,3l-5.22,3V119l1.32.72q.69.36,1.32.72,1.92,1.08,3.84,2.28T120.8,125l5.22-3q2.58-1.49,5.1-3l4.32,2.52q-3.63,2.16-7.26,4.26t-7.26,4.26q-3.8-2.16-7.42-4.26l-7.34-4.26V104.64q3.65-2.16,7.32-4.26T120.8,96.12Z"/><line class="cls-3" x1="134.59" y1="131.42" x2="152.59" y2="131.42"/><line class="cls-3" x1="134.59" y1="85.42" x2="152.59" y2="85.42"/><line class="cls-3" x1="143.59" y1="85.42" x2="143.59" y2="131.42"/></g></g></svg>