<svg xmlns="http://www.w3.org/2000/svg" viewBox="0 0 198.77 221.51"><defs><style>.cls-1,.cls-2,.cls-3,.cls-4{fill:none;stroke:#000;stroke-miterlimit:10;}.cls-1{stroke-width:18px;}.cls-2{stroke-width:8px;}.cls-3{stroke-width:2px;}.cls-4{stroke-width:4px;}</style></defs><g id="Calque_2" data-name="Calque 2"><g id="Calque_1-2" data-name="Calque 1"><polygon class="cls-1" points="189.77 160.99 99.39 211.22 9 160.99 9 60.53 99.39 10.3 189.77 60.53 189.77 160.99"/><polygon class="cls-2" points="172.75 151.13 99.78 191.42 26.82 151.13 26.82 70.54 99.78 30.25 172.75 70.54 172.75 151.13"/><rect class="cls-3" x="54.27" y="67.36" width="23" height="23"/><rect class="cls-3" x="54.27" y="97.36" width="23" height="23"/><rect class="cls-3" x="54.27" y="127.36" width="23" height="23"/><line class="cls-4" x1="87.27" y1="79.36" x2="147.27" y2="79.36"/><line class="cls-4" x1="87.27" y1="109.36" x2="147.27" y2="109.36"/><line class="cls-4" x1="87.27" y1="139.36" x2="147.27" y2="139.36"/><polyline class="cls-4" points="56.89 108.53 62.58 116.54 74.68 100.19"/><polyline class="cls-4" points="56.61 78.53 62.3 86.54 74.41 70.19"/></g></g></svg>