<svg xmlns="http://www.w3.org/2000/svg" viewBox="0 0 198.77 221.51"><defs><style>.cls-1,.cls-2,.cls-3{fill:none;stroke:#000;stroke-miterlimit:10;}.cls-1{stroke-width:18px;}.cls-2{stroke-width:8px;}.cls-3{stroke-width:3px;}</style></defs><g id="Calque_2" data-name="Calque 2"><g id="Calque_1-2" data-name="Calque 1"><polygon class="cls-1" points="189.77 160.99 99.39 211.22 9 160.99 9 60.53 99.39 10.3 189.77 60.53 189.77 160.99"/><polygon class="cls-2" points="172.75 151.13 99.78 191.42 26.82 151.13 26.82 70.54 99.78 30.25 172.75 70.54 172.75 151.13"/><path d="M55.53,90.1,50.43,93q-2.58,1.5-5.22,2.94a23.58,23.58,0,0,0-2.1-1.22,18.83,18.83,0,0,1-2.1-1.3q3.65-2.08,7.22-4.16l7.3-4.24Zm.12-5L60,87.58v45.84l-4.32,2.52q-.07-9.76,0-19.36t0-19.28Z"/><path d="M80,100.86q3.64,2.16,7.26,4.26t7.26,4.26l-2.14,1.26c-.71.41-1.39.83-2.06,1.26l-5.22-3q-2.58-1.49-5.1-3l-5.22,3-5.22,3v10.44c0,.18,0,.42,0,.72a2,2,0,0,0,0,.72.74.74,0,0,0,.22.2,3,3,0,0,0,.4.22,2.78,2.78,0,0,1,.42.22,1.28,1.28,0,0,1,.28.2q2.28,1.27,4.56,2.58L80,129.78c1.63-1,3.34-2,5.14-3l5.06-2.9q1.08.55,2.16,1.2t2.16,1.2q-3.65,2.16-7.26,4.26T80,134.82q-3.72-2.08-7.38-4.22l-7.38-4.3V109.38l7.38-4.26Zm-.12-16.92c2.53,1.38,5,2.79,7.42,4.22s4.86,2.86,7.34,4.3v16.8a.38.38,0,0,1-.3-.12q-.1-.12-.18-.12l-2-1.1c-.64-.36-1.27-.76-1.88-1.18V95q-2.52-1.65-5.16-3.12t-5.16-3q-2.36,1.35-4.82,2.82t-4.9,2.82a2.33,2.33,0,0,1-.3.22.86.86,0,0,1-.3.14.72.72,0,0,1-.24-.08l-.34-.18-.32-.2-.18-.14q-.8-.45-1.62-1t-1.62-1c2.43-1.44,4.85-2.86,7.26-4.24S77.46,85.32,79.89,83.94Z"/><path d="M112.61,83.94c2.53,1.38,5,2.79,7.42,4.22s4.86,2.86,7.34,4.3v16.8a.69.69,0,0,1-.48-.24c-.67-.38-1.32-.74-2-1.08s-1.27-.71-1.88-1.08V95l-5.22-3c-1.72-1-3.42-2-5.1-3q-2.64,1.44-5.22,2.94l-5.1,2.94c-.72-.38-1.44-.76-2.16-1.16s-1.44-.82-2.16-1.24a18.09,18.09,0,0,1,1.8-1.12c.59-.32,1.19-.67,1.8-1l3.6-2.16L109,86.08C110.19,85.37,111.41,84.66,112.61,83.94Zm10.44,40v-12q-2.64-1.53-5.22-3l-5.1-2.9c-1.76,1-3.5,1.92-5.22,2.9s-3.42,2-5.1,3c-.72-.43-1.45-.85-2.2-1.26s-1.45-.84-2.12-1.26q3.64-2.09,7.26-4.2t7.26-4.2c2.53,1.38,5,2.78,7.42,4.2s4.86,2.81,7.34,4.2V126.3q-3.72,2.16-7.32,4.3t-7.32,4.22q-3.72-2.08-7.36-4.22l-7.28-4.3c.72-.38,1.44-.76,2.16-1.16s1.44-.82,2.16-1.24c1.68,1,3.38,1.94,5.1,3s3.42,2,5.1,3c1.81-1,3.57-2,5.26-3S121.29,124.91,123.05,123.9Z"/><polyline class="cls-3" points="141.27 104.67 150.27 96.67 159.27 104.67"/><polyline class="cls-3" points="141.27 115.43 150.27 123.43 159.27 115.43"/></g></g></svg>