<svg xmlns="http://www.w3.org/2000/svg" viewBox="0 0 198.77 221.51"><defs><style>.cls-1,.cls-2,.cls-3,.cls-4,.cls-5{fill:none;stroke:#000;stroke-miterlimit:10;}.cls-1{stroke-width:18px;}.cls-2{stroke-width:8px;}.cls-3{stroke-width:2px;}.cls-4{stroke-width:4px;}.cls-5{stroke-width:3px;}</style></defs><g id="Calque_2" data-name="Calque 2"><g id="Calque_1-2" data-name="Calque 1"><polygon class="cls-1" points="189.77 160.99 99.39 211.22 9 160.99 9 60.53 99.39 10.3 189.77 60.53 189.77 160.99"/><polygon class="cls-2" points="172.75 151.13 99.78 191.42 26.82 151.13 26.82 70.54 99.78 30.25 172.75 70.54 172.75 151.13"/><rect class="cls-3" x="61.27" y="85.64" width="15.09" height="15.09"/><rect class="cls-3" x="61.27" y="105.32" width="15.09" height="15.09"/><rect class="cls-3" x="61.27" y="125" width="15.09" height="15.09"/><line class="cls-4" x1="82.91" y1="93.51" x2="122.27" y2="93.51"/><line class="cls-4" x1="82.91" y1="113.19" x2="122.27" y2="113.19"/><line class="cls-4" x1="82.91" y1="132.87" x2="122.27" y2="132.87"/><polyline class="cls-5" points="62.99 112.65 66.72 117.9 74.66 107.17"/><polyline class="cls-5" points="62.81 92.97 66.54 98.22 74.48 87.49"/><polyline class="cls-5" points="135.45 88.65 135.45 152.15 50.45 152.15 50.45 74.15 121.99 74.15"/><circle class="cls-5" cx="135.45" cy="75.15" r="13.5"/><line class="cls-5" x1="127.45" y1="75.15" x2="142.45" y2="75.15"/><line class="cls-5" x1="135.28" y1="67.65" x2="135.28" y2="82.65"/></g></g></svg>