<svg xmlns="http://www.w3.org/2000/svg" viewBox="0 0 198.77 221.51"><defs><style>.cls-1,.cls-2{fill:none;stroke:#000;stroke-miterlimit:10;}.cls-1{stroke-width:18px;}.cls-2{stroke-width:8px;}</style></defs><g id="Calque_2" data-name="Calque 2"><g id="Calque_1-2" data-name="Calque 1"><polygon class="cls-1" points="189.77 160.99 99.39 211.22 9 160.99 9 60.53 99.39 10.3 189.77 60.53 189.77 160.99"/><path d="M89.69,132.48a36,36,0,0,0-9.83,4.81l-14.7,10.23L35.42,131.2l15.73-10.94a32.34,32.34,0,0,1,25.16-5.09v9.52Z"/><polygon points="88.81 77.99 88.81 87.63 75.48 95.37 75.48 108.64 69.12 112.33 49.42 100.89 49.42 77.99 69.12 66.55 88.81 77.99"/><path d="M163.42,133l-26.93,15.11L121,137.29a36.23,36.23,0,0,0-9.88-4.83l13.38-7.77v-8.13A32.35,32.35,0,0,1,147.69,122Z"/><polygon points="149.68 79.78 149.68 102.67 129.99 114.12 125.31 111.41 125.31 95.47 110.29 86.75 110.29 79.78 129.99 68.33 149.68 79.78"/><path d="M100.62,168.75,69,151.37l14.42-10a29.61,29.61,0,0,1,33.82,0l14.42,10Z"/><polygon points="120.12 121.39 100.43 132.84 80.74 121.39 80.74 98.49 100.43 87.05 120.12 98.49 120.12 121.39"/><polygon class="cls-2" points="172.75 151.13 99.78 191.42 26.82 151.13 26.82 70.54 99.78 30.25 172.75 70.54 172.75 151.13"/></g></g></svg>