<svg xmlns="http://www.w3.org/2000/svg" viewBox="0 0 198.77 221.51"><defs><style>.cls-1,.cls-2{fill:none;stroke:#fff;stroke-miterlimit:10;}.cls-1{stroke-width:18px;}.cls-2{stroke-width:8px;}.cls-3{fill:#fff;}</style></defs><g id="Calque_2" data-name="Calque 2"><g id="Calque_1-2" data-name="Calque 1"><polygon class="cls-1" points="189.77 160.99 99.39 211.22 9 160.99 9 60.53 99.39 10.3 189.77 60.53 189.77 160.99"/><polygon class="cls-2" points="172.75 151.13 99.78 191.42 26.82 151.13 26.82 70.54 99.78 30.25 172.75 70.54 172.75 151.13"/><path class="cls-3" d="M29.42,121.27,46.9,90l2.46-4.4-5.48-.72L49,104.09,57.1,134.6l1.86,7a3,3,0,0,0,5.79,0l5.72-20.8,9.15-33.31,2.09-7.61H75.93l7,26.86,11,42.52,2.54,9.81c.71,2.73,5.24,3,5.79,0L106,138.91l5.89-31.85,1.36-7.38h-5.79l9.6,30,1.37,4.29a3.08,3.08,0,0,0,2.9,2.2,3,3,0,0,0,2.89-2.2l3.72-20.57,5.89-32.64,1.36-7.5H129.4L135,87.13l8.83,22,2.06,5.1a3,3,0,0,0,5,1.33l21-18,3-2.57a3,3,0,0,0,0-4.25,3.08,3.08,0,0,0-4.25,0l-21,18-3,2.58,5,1.32-5.57-13.85-8.83-22-2.05-5.11a3.14,3.14,0,0,0-2.89-2.2,3,3,0,0,0-2.9,2.2l-3.71,20.58-5.9,32.63-1.36,7.51h5.79l-9.6-30-1.37-4.3c-.83-2.61-5.22-3.09-5.79,0l-3.72,20.16-5.88,31.85-1.37,7.38h5.79l-7-26.85-11-42.53-2.55-9.81a3,3,0,0,0-5.78,0L70.21,99.09l-9.15,33.3L59,140h5.79l-5.11-19.24L51.53,90.26l-1.86-7a3,3,0,0,0-5.49-.72L26.7,113.83l-2.47,4.41c-1.88,3.37,3.3,6.4,5.19,3Z"/></g></g></svg>